<?xml version="1.0" encoding="UTF-8" standalone="no"?>
<svg
   xmlns:dc="http://purl.org/dc/elements/1.1/"
   xmlns:cc="http://creativecommons.org/ns#"
   xmlns:rdf="http://www.w3.org/1999/02/22-rdf-syntax-ns#"
   xmlns:svg="http://www.w3.org/2000/svg"
   xmlns="http://www.w3.org/2000/svg"
   xmlns:sodipodi="http://sodipodi.sourceforge.net/DTD/sodipodi-0.dtd"
   xmlns:inkscape="http://www.inkscape.org/namespaces/inkscape"
   fill="currentcolor"
   style="display:block"
   version="1.1"
   id="svg4"
   sodipodi:docname="airbnb-logo-2020.svg"
   width="700"
   height="700"
   inkscape:version="0.92.4 (5da689c313, 2019-01-14)"
   inkscape:export-filename="C:\Users\suitedoalex\sites\airbnb-logo-0.png"
   inkscape:export-xdpi="561.73712"
   inkscape:export-ydpi="561.73712">
  <metadata
     id="metadata10">
    <rdf:RDF>
      <cc:Work
         rdf:about="">
        <dc:format>image/svg+xml</dc:format>
        <dc:type
           rdf:resource="http://purl.org/dc/dcmitype/StillImage" />
        <dc:title></dc:title>
      </cc:Work>
    </rdf:RDF>
  </metadata>
  <defs
     id="defs8" />
  <sodipodi:namedview
     pagecolor="#ffffff"
     bordercolor="#666666"
     borderopacity="1"
     objecttolerance="10"
     gridtolerance="10"
     guidetolerance="10"
     inkscape:pageopacity="0"
     inkscape:pageshadow="2"
     inkscape:window-width="1600"
     inkscape:window-height="837"
     id="namedview6"
     showgrid="false"
     inkscape:zoom="0.295"
     inkscape:cx="573.01995"
     inkscape:cy="483.00775"
     inkscape:window-x="-8"
     inkscape:window-y="-8"
     inkscape:window-maximized="1"
     inkscape:current-layer="svg4" />
  <path
     d="m 218.78891,907.52506 c -0.97302,-2.37172 -1.88522,-4.86506 -2.85823,-6.99353 l -4.50019,-10.15583 -0.18244,-0.18244 c -13.37893,-29.1904 -27.67007,-58.86731 -42.81259,-88.05771 l -0.60813,-1.21627 c -1.52033,-2.85823 -3.04067,-6.02052 -4.62181,-8.93956 -1.94603,-3.46636 -3.83124,-7.17597 -6.93272,-10.70315 a 32.231069,32.231069 0 0 0 -49.86694,0 c -2.85823,3.52718 -4.9867,7.23679 -6.932726,10.70315 -1.520333,3.16229 -3.040666,6.26377 -4.621813,9.122 l -0.608134,1.21627 C 79.34392,831.50839 64.809532,861.1853 51.430598,890.3757 l -0.36488,0.36488 c -1.337893,3.16229 -2.91904,6.44621 -4.439374,9.97339 -0.973013,2.12847 -1.946026,4.43937 -2.91904,6.99353 a 41.353069,41.353069 0 0 0 43.785603,56.13071 50.961577,50.961577 0 0 0 19.338643,-6.68946 c 7.90573,-4.43938 15.5074,-10.88559 24.02127,-20.19003 8.51387,9.30444 16.29798,15.75065 24.02127,20.25084 a 50.961577,50.961577 0 0 0 24.44696,6.99353 41.292256,41.292256 0 0 0 41.049,-35.45417 36.123122,36.123122 0 0 0 -1.58114,-21.28467 z m -87.32796,10.09502 c -10.45989,-13.37894 -17.27099,-25.66323 -19.58189,-36.18394 a 31.622935,31.622935 0 0 1 -0.60814,-11.91941 c 0.4257,-3.10148 1.58115,-5.83808 3.1623,-8.14899 3.6488,-5.29076 10.0342,-8.57468 17.02773,-8.57468 a 20.068401,20.068401 0 0 1 17.02774,8.51387 c 1.58115,2.43253 2.7366,5.10832 3.10148,8.2098 0.60813,3.52717 0.36488,7.60166 -0.60813,11.91941 -2.31091,10.33827 -9.122,22.74419 -19.52109,36.18394 z m 77.4762,9.00037 a 28.947149,28.947149 0 0 1 -17.63587,22.805 c -4.62181,1.94603 -9.73014,2.49335 -14.71683,1.94603 -4.86507,-0.60814 -9.73013,-2.18928 -14.71683,-5.10832 a 95.11206,95.11206 0 0 1 -22.07524,-18.85214 c 12.7708,-15.81146 20.4941,-30.22423 23.41314,-43.05584 1.3987,-6.08133 1.58114,-11.55453 0.97301,-16.60204 a 33.629776,33.629776 0 0 0 -5.22995,-13.37893 32.595949,32.595949 0 0 0 -27.30519,-13.86545 c -11.25047,0 -21.28467,5.22995 -27.366,13.80463 a 31.501309,31.501309 0 0 0 -5.169136,13.43975 c -0.790573,5.10832 -0.608133,10.76396 0.973016,16.60204 2.91904,12.83161 10.82477,27.42682 23.41313,43.17747 a 87.145512,87.145512 0 0 1 -22.07524,18.97376 c -5.047506,2.91904 -9.851759,4.43937 -14.716826,5.04751 A 28.947149,28.947149 0 0 1 54.349638,926.80289 c -0.608133,-4.86507 -0.18244,-9.73013 1.763587,-15.20333 0.608133,-1.94603 1.520333,-3.89206 2.493347,-6.20296 1.337893,-3.1623 2.91904,-6.44622 4.439373,-9.73014 l 0.243254,-0.42569 C 76.42488,866.23281 90.776827,836.61671 105.6761,807.60875 l 0.60813,-1.21627 c 1.52033,-2.91904 3.04067,-6.02052 4.62181,-8.93956 1.58115,-3.10148 3.28392,-6.08133 5.4732,-8.51387 a 20.190028,20.190028 0 0 1 30.954,0 c 2.12846,2.43254 3.89205,5.41239 5.4732,8.51387 1.52033,2.91904 3.04066,6.08134 4.62181,8.93956 l 0.60813,1.21627 c 14.83846,29.00796 29.19041,58.62406 42.56934,87.63202 l 0.18244,0.18244 c 1.58115,3.16229 2.91904,6.68947 4.43937,9.73013 0.97302,2.37172 1.94603,4.25694 2.55416,6.26378 1.15546,5.4732 1.76359,10.33826 1.15546,15.20333 z m 84.65216,-10.33827 a 30.528295,30.528295 0 0 1 -24.02127,-11.12884 39.832736,39.832736 0 0 1 -9.73013,-27.24437 42.326083,42.326083 0 0 1 10.09501,-27.85251 32.231069,32.231069 0 0 1 24.81185,-11.31128 26.149735,26.149735 0 0 1 22.50093,11.67616 l 0.60813,-9.5477 h 17.7575 v 73.46252 h -17.81831 l -0.60813,-10.70315 a 27.487628,27.487628 0 0 1 -23.59558,12.64917 z m 4.62182,-17.51424 c 3.52717,0 6.62865,-0.97301 9.54769,-2.7366 2.67579,-1.94603 4.86507,-4.50019 6.56784,-7.60167 1.52033,-3.10148 2.31091,-6.81109 2.31091,-10.9464 a 20.798161,20.798161 0 0 0 -8.93956,-18.48725 17.939935,17.939935 0 0 0 -18.97376,0 c -2.67579,1.94603 -4.86507,4.50019 -6.56785,7.60167 a 24.386148,24.386148 0 0 0 -2.3109,10.9464 20.798161,20.798161 0 0 0 8.93956,18.48725 c 2.85823,1.76359 5.95971,2.7366 9.42607,2.7366 z M 366.018,821.0485 c 0,2.12846 -0.36488,4.07449 -1.3379,5.65564 -0.97301,1.52033 -2.3109,2.91904 -4.07449,3.89205 -1.76359,0.97301 -3.6488,1.33789 -5.59483,1.33789 -1.94602,0 -3.89205,-0.36488 -5.65564,-1.33789 a 11.189654,11.189654 0 0 1 -4.07449,-3.89205 11.068027,11.068027 0 0 1 -1.33789,-5.65564 c 0,-2.18928 0.42569,-4.13531 1.33789,-5.65564 0.97301,-1.8244 2.37172,-2.91904 4.07449,-3.89206 1.76359,-0.97301 3.6488,-1.3987 5.65564,-1.3987 a 11.189654,11.189654 0 0 1 9.73014,5.22994 12.162667,12.162667 0 0 1 1.27708,5.71646 z m -20.67654,93.0444 v -73.34088 h 19.33864 v 73.46251 h -19.39945 z m 71.02998,-54.12387 v 0.24326 c -0.9122,-0.4257 -2.12847,-0.60814 -3.04067,-0.79058 -1.21626,-0.24325 -2.18928,-0.24325 -3.34473,-0.24325 -5.41239,0 -9.48688,1.58115 -12.16267,4.86507 -2.91904,3.34473 -4.25693,8.02736 -4.25693,14.04788 v 36.06231 H 374.16698 V 840.6912 h 17.81831 l 0.60814,11.12885 c 1.94602,-3.89206 4.25693,-6.8111 7.54085,-9.00038 a 18.852135,18.852135 0 0 1 11.00721,-3.04067 c 1.39871,0 2.7366,0.12163 3.89206,0.36488 0.60813,0.18244 0.97301,0.18244 1.33789,0.36488 z m 7.78411,54.12387 V 810.5886 h 19.33864 v 39.52867 c 2.7366,-3.52717 5.83808,-6.26377 9.73013,-8.39224 a 30.528295,30.528295 0 0 1 36.97451,7.96655 39.832736,39.832736 0 0 1 9.73014,27.30519 42.326083,42.326083 0 0 1 -10.09502,27.85251 32.231069,32.231069 0 0 1 -24.81184,11.31128 26.149735,26.149735 0 0 1 -22.50093,-11.67616 l -0.60814,9.54769 -17.75749,0.18244 z m 37.4002,-15.32496 c 3.46636,0 6.56784,-0.97301 9.48688,-2.7366 2.67579,-1.94603 4.86507,-4.50019 6.56784,-7.60167 1.58115,-3.10148 2.31091,-6.81109 2.31091,-10.9464 0,-4.07449 -0.72976,-7.7841 -2.31091,-10.88558 a 22.805001,22.805001 0 0 0 -6.56784,-7.60167 17.939935,17.939935 0 0 0 -18.97376,0 c -2.7366,1.94603 -4.86507,4.50019 -6.62865,7.60167 a 24.386148,24.386148 0 0 0 -2.31091,10.9464 20.798161,20.798161 0 0 0 8.93956,18.48725 c 2.85823,1.76359 5.95971,2.7366 9.48688,2.7366 z m 45.67082,15.38578 V 840.6912 h 17.8183 l 0.60814,9.5477 a 24.082082,24.082082 0 0 1 21.52792,-11.49372 24.933468,24.933468 0 0 1 23.23069,14.83845 c 2.12847,4.62182 3.28392,10.33827 3.28392,16.72367 v 44.02886 h -19.39945 v -41.4747 c 0,-5.10832 -1.15545,-9.122 -3.46636,-12.10185 -2.31091,-2.91904 -5.4732,-4.50019 -9.48688,-4.50019 -2.91904,0 -5.4732,0.60813 -7.7233,1.94603 -2.12846,1.3987 -3.89205,3.16229 -5.22994,5.65564 a 16.419601,16.419601 0 0 0 -1.94603,8.2098 v 42.08283 z m 76.13829,0 V 810.52779 h 19.39946 v 39.52867 a 28.399829,28.399829 0 0 1 22.68337,-11.49372 30.528295,30.528295 0 0 1 24.02127,11.12884 39.954363,39.954363 0 0 1 9.66932,27.24437 42.265269,42.265269 0 0 1 -10.09501,27.85251 32.231069,32.231069 0 0 1 -24.81184,11.31128 26.149735,26.149735 0 0 1 -22.50094,-11.67616 l -0.54732,9.5477 z m 37.58265,-15.38578 c 3.52717,0 6.62865,-0.97301 9.48688,-2.7366 2.7366,-1.94603 4.86506,-4.50019 6.62865,-7.60167 1.52033,-3.10148 2.31091,-6.81109 2.31091,-10.9464 a 20.798161,20.798161 0 0 0 -8.93956,-18.48725 17.939935,17.939935 0 0 0 -18.97376,0 c -2.67579,1.94603 -4.86507,4.50019 -6.56784,7.60167 a 22.075241,22.075241 0 0 0 -2.31091,10.9464 20.798161,20.798161 0 0 0 8.93956,18.48725 c 2.85823,1.76359 5.77727,2.7366 9.42607,2.7366 z"
     id="path2"
     style="fill:#ff5a5f;stroke-width:6.08133364;fill-opacity:1"
     inkscape:connector-curvature="0"
     inkscape:export-filename="C:\Users\suitedoalex\sites\airbnb-logo-4.png"
     inkscape:export-xdpi="108.68327"
     inkscape:export-ydpi="108.68327" />
  <path
     d="m 494.28913,354.59308 c -1.59987,-3.8998 -3.09996,-7.99957 -4.69983,-11.4994 l -7.3996,-16.69915 -0.29996,-0.29997 C 459.89096,278.09702 436.39209,229.29955 411.49337,181.30204 l -0.9998,-1.9999 c -2.50005,-4.69976 -4.99995,-9.8995 -7.59962,-14.69927 -3.20006,-5.69968 -6.29971,-11.79938 -11.39944,-17.59908 -21.20349,-25.88445 -60.79217,-25.88445 -81.99582,0 -4.69968,5.7997 -8.19953,11.8994 -11.39943,17.59908 -2.49974,5.19974 -4.99964,10.29947 -7.59963,14.99924 l -0.99995,1.99989 c -24.49868,47.99753 -48.39744,96.79502 -70.39621,144.79253 l -0.60007,0.59999 c -2.19979,5.19971 -4.79993,10.59942 -7.29967,16.39914 -1.59987,3.49982 -3.19974,7.29962 -4.79961,11.49941 -18.90548,48.13324 20.70908,98.91684 71.99639,92.29529 11.23396,-1.47888 22.0513,-5.2208 31.79818,-10.99948 12.99915,-7.29969 25.49863,-17.89911 39.49805,-33.19827 13.99911,15.29916 26.79855,25.89858 39.49774,33.29822 12.21239,7.16814 26.04231,11.12431 40.19806,11.49936 33.89664,0.14146 62.70409,-24.74034 67.49642,-58.29686 2.67823,-11.66165 1.77216,-23.86031 -2.59983,-34.99824 z m -143.59258,16.59916 c -17.19916,-21.99889 -28.39873,-42.19783 -32.19823,-59.49694 -1.57431,-6.4103 -1.91377,-13.06175 -1.00012,-19.59899 0.70001,-5.09972 2.59983,-9.59949 5.19982,-13.3993 5.99975,-8.69955 16.49931,-14.09928 27.99853,-14.09928 11.09328,-0.33889 21.6136,4.9214 27.99853,13.99928 2.59998,3.99979 4.49965,8.39958 5.09972,13.4993 0.99996,5.7997 0.59992,12.49936 -0.9998,19.59899 -3.79997,16.99914 -14.99938,37.39809 -32.09845,59.49694 z m 127.39353,14.7992 c -2.31211,16.76604 -13.35333,31.04324 -28.99864,37.49809 -7.59962,3.19977 -15.99902,4.09986 -24.19872,3.19977 -7.99966,-0.9999 -15.99918,-3.59969 -24.19871,-8.39953 -13.61425,-8.41449 -25.85623,-18.86906 -36.29816,-30.99834 20.99882,-25.99869 33.69817,-49.69749 38.4981,-70.79638 2.29972,-9.99949 2.59967,-18.99899 1.59987,-27.29859 -1.24863,-7.86674 -4.18204,-15.37085 -8.59958,-21.99885 -10.24222,-14.59437 -27.07108,-23.1401 -44.89758,-22.79885 -18.49908,0 -34.99824,8.59956 -44.99767,22.69884 -4.50152,6.61125 -7.41075,14.17513 -8.4998,22.09886 -1.29992,8.39956 -0.99965,17.69907 1.59987,27.29859 4.79993,21.09889 17.79908,45.0977 38.49809,70.99633 -10.26452,12.36095 -22.53501,22.9076 -36.29799,31.19844 -8.29963,4.79971 -16.19921,7.2995 -24.19872,8.29956 -25.89248,3.31671 -49.62484,-14.83971 -53.19736,-40.69801 -0.9998,-7.99947 -0.29996,-15.99909 2.89994,-24.99863 0.99981,-3.19983 2.49974,-6.39967 4.09961,-10.19946 2.19994,-5.19974 4.79993,-10.59947 7.29983,-15.9992 l 0.39989,-0.69996 c 21.59873,-47.69752 45.19753,-96.39502 69.69651,-144.09256 l 0.99981,-1.9999 c 2.49974,-4.79974 4.99995,-9.89948 7.59947,-14.69924 2.59998,-5.09974 5.39968,-9.99947 8.99978,-13.99928 13.26889,-15.83935 37.62859,-15.83935 50.89733,0 3.4997,3.99981 6.39948,8.89954 8.99947,13.99928 2.4999,4.79976 4.99979,9.9995 7.59962,14.69924 l 0.99996,1.9999 c 24.39874,47.69754 47.99739,96.39504 69.99648,144.09256 l 0.2998,0.30001 c 2.59998,5.19972 4.79992,10.99943 7.29982,15.99915 1.59987,3.8998 3.19974,6.99966 4.19954,10.29948 1.90014,8.99955 2.89979,16.99904 1.90014,24.99868 z"
     id="path2-9-9"
     style="display:block;fill:#ff5a5f;stroke-width:9.99948406;fill-opacity:1"
     inkscape:connector-curvature="0"
     sodipodi:nodetypes="cccccccccccccccccccccccccccccccccccccccccccccccccccccccccccccccccc"
     inkscape:export-filename="C:\Users\suitedoalex\sites\airbnb-logo-5.png"
     inkscape:export-xdpi="167.35857"
     inkscape:export-ydpi="167.35857" />
  <path
     d="m 183.18724,572.40575 c -9.33398,0.13666 -18.22298,-3.98155 -24.15379,-11.19014 -6.57921,-7.58263 -10.0707,-17.35951 -9.7836,-27.39444 -0.10071,-10.25329 3.50373,-20.19821 10.15049,-28.00593 6.22379,-7.29559 15.3593,-11.46022 24.94846,-11.37358 9.06129,-0.24803 17.61129,4.18871 22.62487,11.74047 l 0.61153,-9.60028 h 17.85548 v 73.86717 H 207.524 l -0.61153,-10.76211 c -5.16976,8.0647 -14.14707,12.87726 -23.72523,12.71884 z m 4.64731,-17.61073 c 3.54649,0 6.66474,-0.97836 9.60001,-2.75166 2.69062,-1.95673 4.8918,-4.52497 6.60415,-7.64353 1.52845,-3.11857 2.32374,-6.84861 2.32374,-11.0067 0.48479,-7.34666 -2.92923,-14.40705 -8.98894,-18.58908 -5.83908,-3.63813 -13.23915,-3.63813 -19.07838,0 -2.69047,1.95675 -4.89196,4.52496 -6.60385,7.64355 -1.61722,3.43924 -2.41267,7.20729 -2.32373,11.00667 -0.48495,7.34666 2.92922,14.40706 8.98878,18.58909 2.87391,1.7733 5.99247,2.75166 9.47822,2.75166 z m 68.18031,-78.14752 c 0,2.1402 -0.36719,4.09693 -1.34531,5.6868 -0.97857,1.52871 -2.32358,2.93512 -4.09698,3.9135 -1.7734,0.97836 -3.66889,1.34525 -5.62573,1.34525 -1.95669,0 -3.91353,-0.36689 -5.68678,-1.34525 -1.67718,-0.93369 -3.08757,-2.28089 -4.09698,-3.9135 -0.94697,-1.74194 -1.41131,-3.70521 -1.34531,-5.6868 0,-2.20133 0.42809,-4.15809 1.34531,-5.68679 0.97827,-1.83445 2.38478,-2.93512 4.09698,-3.91351 1.77325,-0.97836 3.66904,-1.4064 5.68678,-1.4064 3.95955,-0.0914 7.67539,1.90602 9.78376,5.25875 0.8898,1.78278 1.33059,3.75598 1.28426,5.74795 z m -20.79058,93.55692 v -73.74487 h 19.44527 v 73.86716 h -19.50647 z m 71.42111,-54.42199 v 0.24458 c -0.91722,-0.42804 -2.13997,-0.61147 -3.0572,-0.79493 -1.22306,-0.2446 -2.20149,-0.2446 -3.36351,-0.2446 -5.44198,0 -9.53896,1.58988 -12.22943,4.89188 -2.93495,3.36315 -4.28042,8.07157 -4.28042,14.12524 v 36.26096 H 264.20851 V 496.3984 h 17.91637 l 0.61168,11.19015 c 1.95669,-3.91349 4.28027,-6.84862 7.58227,-9.04997 3.2845,-2.13886 7.15124,-3.20702 11.06787,-3.05742 1.40651,0 2.75152,0.12225 3.91338,0.36692 0.61169,0.18352 0.97858,0.18352 1.34531,0.36688 z m 7.82707,54.42199 V 466.12999 h 19.44512 v 39.7464 c 2.75167,-3.5466 5.87023,-6.29828 9.78376,-8.43848 12.75358,-6.25299 28.13146,-2.93968 37.17819,8.01044 6.59362,7.59834 10.08651,17.39977 9.78376,27.4556 0.10071,10.25329 -3.50388,20.1982 -10.15049,28.00592 -6.2241,7.29559 -15.3593,11.46025 -24.94861,11.37358 -9.06145,0.24805 -17.61114,-4.18871 -22.62503,-11.74047 l -0.61138,9.60028 -17.85532,0.18353 z m 37.60613,-15.4094 c 3.4856,0 6.60416,-0.97836 9.53911,-2.75166 2.69078,-1.95673 4.89211,-4.52497 6.60416,-7.64353 1.5898,-3.11857 2.32358,-6.84861 2.32358,-11.0067 0,-4.09693 -0.73378,-7.82697 -2.32358,-10.94553 -1.60576,-3.00708 -3.86179,-5.61827 -6.60416,-7.64355 -5.83877,-3.63813 -13.23914,-3.63813 -19.07823,0 -2.75166,1.95675 -4.8918,4.52496 -6.6652,7.64355 -1.61676,3.43924 -2.41236,7.20729 -2.32358,11.00667 -0.48479,7.34666 2.92923,14.40706 8.98878,18.58909 2.87407,1.7733 5.99263,2.75166 9.53912,2.75166 z m 45.92248,15.47054 V 496.3984 h 17.91636 l 0.61169,9.6003 c 4.58456,-7.49379 12.86885,-11.91658 21.64645,-11.55704 10.07737,-0.174 19.27934,5.7036 23.35866,14.92019 2.14013,4.64725 3.30184,10.39522 3.30184,16.81578 v 44.27139 h -19.50632 v -41.70314 c 0,-5.13648 -1.16171,-9.17226 -3.48544,-12.16852 -2.32358,-2.93514 -5.50349,-4.52498 -9.53896,-4.52498 -2.93496,0 -5.50349,0.61148 -7.76587,1.95672 -2.14044,1.40644 -3.91338,3.17973 -5.25869,5.6868 -1.36034,2.53428 -2.03478,5.37988 -1.95685,8.25503 v 42.31463 z m 76.55756,0 V 466.06884 h 19.50632 v 39.7464 c 5.35723,-7.23098 13.80916,-11.51376 22.80847,-11.55704 9.33383,-0.13665 18.22267,3.98156 24.15359,11.19015 6.5467,7.59781 10.01459,17.36952 9.72248,27.39443 0.10675,10.25426 -3.49887,20.20107 -10.1504,28.00595 -6.22395,7.29561 -15.35942,11.46022 -24.94858,11.37358 -9.06129,0.24802 -17.61129,-4.18873 -22.62518,-11.7405 l -0.55003,9.60032 z m 37.78972,-15.47054 c 3.54665,0 6.66521,-0.97836 9.53912,-2.75166 2.75167,-1.95673 4.89196,-4.52497 6.6652,-7.64353 1.52876,-3.11857 2.32373,-6.84861 2.32373,-11.0067 0.4848,-7.34669 -2.92937,-14.40709 -8.98893,-18.58908 -5.83908,-3.63809 -13.23899,-3.63809 -19.07823,0 -2.69047,1.95675 -4.8918,4.52496 -6.604,7.64355 -1.70678,3.4085 -2.50703,7.19911 -2.32374,11.00667 -0.48495,7.34667 2.92923,14.40709 8.98894,18.58909 2.87376,1.7733 5.80918,2.75166 9.47791,2.75166 z"
     id="path2-9-9-3"
     style="display:block;fill:#ff5a5f;stroke-width:6.11483097;fill-opacity:1"
     inkscape:connector-curvature="0"
     sodipodi:nodetypes="ccccccccccccsccccccccsccsscccccccccccccccccscscccccccccccccccccccccccsccsccccccsccccccsccscscccccccccccccccccsccccccccs"
     inkscape:export-filename="C:\Users\suitedoalex\sites\airbnb-logo-5.png"
     inkscape:export-xdpi="167.35857"
     inkscape:export-ydpi="167.35857" />
</svg>
